G75*
%MOIN*%
%OFA0B0*%
%FSLAX25Y25*%
%IPPOS*%
%LPD*%
%AMOC8*
5,1,8,0,0,1.08239X$1,22.5*
%
%ADD10C,0.00000*%
%ADD11C,0.13398*%
%ADD12C,0.08674*%
%ADD13R,0.05131X0.04737*%
%ADD14R,0.07887X0.07099*%
%ADD15C,0.07300*%
%ADD16R,0.07300X0.07300*%
%ADD17R,0.07099X0.06312*%
%ADD18R,0.06312X0.07099*%
%ADD19R,0.07099X0.07887*%
%ADD20R,0.07099X0.09068*%
%ADD21R,0.03950X0.03950*%
%ADD22C,0.06400*%
%ADD23R,0.03162X0.09461*%
%ADD24OC8,0.10800*%
%ADD25OC8,0.15800*%
%ADD26R,0.03162X0.06706*%
%ADD27R,0.06800X0.06800*%
%ADD28C,0.06800*%
%ADD29R,0.08400X0.08400*%
%ADD30C,0.08400*%
%ADD31R,0.07099X0.07898*%
%ADD32R,0.04737X0.05131*%
%ADD33C,0.08200*%
%ADD34R,0.04737X0.06312*%
%ADD35R,0.06600X0.02800*%
%ADD36R,0.02800X0.06600*%
%ADD37R,0.09500X0.03200*%
%ADD38R,0.01575X0.05512*%
%ADD39C,0.04762*%
%ADD40C,0.06706*%
D10*
X0078033Y0121100D02*
X0078033Y0357714D01*
X0826065Y0357714D01*
X0826065Y0121100D01*
X0078033Y0121100D01*
D11*
X0107167Y0139604D03*
X0104805Y0336454D03*
X0759136Y0325824D03*
X0806380Y0337635D03*
X0806380Y0140785D03*
X0759136Y0140785D03*
D12*
X0557482Y0230352D03*
X0616931Y0233895D03*
X0585435Y0274131D03*
X0384451Y0287045D03*
X0380120Y0318935D03*
X0379333Y0334289D03*
X0266025Y0302399D03*
X0268781Y0290706D03*
X0212797Y0313029D03*
X0138860Y0248069D03*
D13*
X0111931Y0253935D03*
X0111931Y0260628D03*
X0176419Y0266691D03*
X0176419Y0273383D03*
X0137246Y0308108D03*
X0137246Y0314801D03*
X0152600Y0323895D03*
X0152600Y0330588D03*
X0213112Y0342045D03*
X0213112Y0348738D03*
X0265081Y0348423D03*
X0265081Y0341730D03*
X0219766Y0326415D03*
X0219766Y0319722D03*
X0278585Y0254683D03*
X0289214Y0254880D03*
X0289214Y0248187D03*
X0278585Y0247990D03*
X0157010Y0183541D03*
X0157010Y0176848D03*
X0142836Y0165667D03*
X0142836Y0158974D03*
X0120120Y0164683D03*
X0110750Y0164958D03*
X0110750Y0171651D03*
X0120120Y0171376D03*
X0111931Y0198423D03*
X0111931Y0205116D03*
X0191262Y0165746D03*
X0191262Y0159053D03*
X0513033Y0159840D03*
X0513033Y0166533D03*
X0524844Y0166927D03*
X0524844Y0160234D03*
X0524844Y0150588D03*
X0524844Y0143895D03*
X0513033Y0143502D03*
X0513033Y0150194D03*
D14*
X0745514Y0153187D03*
X0745514Y0164210D03*
X0165277Y0266651D03*
X0165277Y0277675D03*
D15*
X0792640Y0214683D03*
D16*
X0772640Y0214683D03*
D17*
X0488821Y0328423D03*
X0488821Y0339446D03*
D18*
X0427994Y0340549D03*
X0416970Y0340549D03*
X0416852Y0329210D03*
X0427876Y0329210D03*
D19*
X0335947Y0289840D03*
X0324923Y0289840D03*
X0299096Y0318187D03*
X0288073Y0318187D03*
X0771340Y0155194D03*
X0782364Y0155194D03*
D20*
X0776380Y0166651D03*
X0794096Y0166651D03*
D21*
X0589451Y0228108D03*
X0583545Y0228108D03*
X0509844Y0226966D03*
X0503939Y0226966D03*
X0503939Y0219053D03*
X0509844Y0219053D03*
X0265474Y0331336D03*
X0265474Y0337242D03*
X0213033Y0337242D03*
X0213033Y0331336D03*
X0118191Y0177793D03*
X0112285Y0177793D03*
D22*
X0102408Y0173344D02*
X0096808Y0173344D01*
X0096808Y0183344D02*
X0102408Y0183344D01*
X0101936Y0197006D02*
X0096336Y0197006D01*
X0096336Y0207006D02*
X0101936Y0207006D01*
X0101936Y0217006D02*
X0096336Y0217006D01*
X0095785Y0230116D02*
X0101385Y0230116D01*
X0101385Y0240116D02*
X0095785Y0240116D01*
X0095981Y0253265D02*
X0101581Y0253265D01*
X0101581Y0263265D02*
X0095981Y0263265D01*
X0095509Y0277084D02*
X0101109Y0277084D01*
X0101109Y0287084D02*
X0095509Y0287084D01*
X0224726Y0334757D02*
X0224726Y0340357D01*
X0234726Y0340357D02*
X0234726Y0334757D01*
X0244726Y0334757D02*
X0244726Y0340357D01*
X0254726Y0340357D02*
X0254726Y0334757D01*
X0277758Y0333576D02*
X0277758Y0339176D01*
X0287758Y0339176D02*
X0287758Y0333576D01*
X0297758Y0333576D02*
X0297758Y0339176D01*
X0307758Y0339176D02*
X0307758Y0333576D01*
X0137915Y0345150D02*
X0137915Y0350750D01*
X0127915Y0350750D02*
X0127915Y0345150D01*
X0102408Y0163344D02*
X0096808Y0163344D01*
X0144214Y0142365D02*
X0144214Y0136765D01*
X0154214Y0136765D02*
X0154214Y0142365D01*
X0191459Y0142561D02*
X0191459Y0136961D01*
X0201459Y0136961D02*
X0201459Y0142561D01*
X0514214Y0137798D02*
X0514214Y0132198D01*
X0524214Y0132198D02*
X0524214Y0137798D01*
X0803107Y0163777D02*
X0808707Y0163777D01*
X0808707Y0173777D02*
X0803107Y0173777D01*
X0803107Y0183777D02*
X0808707Y0183777D01*
D23*
X0362974Y0278462D03*
X0357974Y0278462D03*
X0352974Y0278462D03*
X0347974Y0278462D03*
X0313486Y0263344D03*
X0308486Y0263344D03*
X0303486Y0263344D03*
X0298486Y0263344D03*
X0293486Y0263344D03*
X0288486Y0263344D03*
X0283486Y0263344D03*
X0278486Y0263344D03*
X0278486Y0299565D03*
X0283486Y0299565D03*
X0288486Y0299565D03*
X0293486Y0299565D03*
X0298486Y0299565D03*
X0303486Y0299565D03*
X0308486Y0299565D03*
X0313486Y0299565D03*
X0347974Y0298935D03*
X0352974Y0298935D03*
X0357974Y0298935D03*
X0362974Y0298935D03*
D24*
X0353270Y0235687D03*
X0358270Y0225687D03*
X0323270Y0235687D03*
X0318270Y0225687D03*
X0338270Y0155687D03*
X0338270Y0145687D03*
D25*
X0338270Y0225687D03*
D26*
X0248014Y0291336D03*
X0243014Y0291336D03*
X0238014Y0291336D03*
X0233014Y0291336D03*
X0233014Y0312990D03*
X0238014Y0312990D03*
X0243014Y0312990D03*
X0248014Y0312990D03*
D27*
X0487482Y0137006D03*
D28*
X0477482Y0137006D03*
X0467482Y0137006D03*
X0457482Y0137006D03*
X0447482Y0137006D03*
D29*
X0616852Y0138462D03*
X0626695Y0138462D03*
X0718427Y0139131D03*
X0728270Y0139131D03*
X0626695Y0211691D03*
X0616852Y0211691D03*
X0718427Y0212360D03*
X0728270Y0212360D03*
D30*
X0685474Y0212360D03*
X0675632Y0212360D03*
X0583899Y0211691D03*
X0574057Y0211691D03*
X0574057Y0138462D03*
X0583899Y0138462D03*
X0675632Y0139131D03*
X0685474Y0139131D03*
D31*
X0755466Y0163777D03*
X0766663Y0163777D03*
X0792002Y0155509D03*
X0803199Y0155509D03*
D32*
X0788033Y0176257D03*
X0781340Y0176257D03*
X0781065Y0185234D03*
X0787758Y0185234D03*
X0606065Y0228147D03*
X0599372Y0228147D03*
X0539962Y0250352D03*
X0533270Y0250352D03*
X0532797Y0259801D03*
X0539490Y0259801D03*
X0566695Y0274289D03*
X0573388Y0274289D03*
X0522679Y0227163D03*
X0515986Y0227163D03*
X0516065Y0218895D03*
X0522758Y0218895D03*
X0485907Y0144368D03*
X0479214Y0144368D03*
X0220868Y0163974D03*
X0214175Y0163974D03*
X0196852Y0151454D03*
X0190159Y0151454D03*
X0148506Y0151454D03*
X0141813Y0151454D03*
X0114805Y0229407D03*
X0108112Y0229407D03*
X0127049Y0266730D03*
X0133742Y0266730D03*
X0222325Y0302990D03*
X0229018Y0302990D03*
X0235317Y0326612D03*
X0242010Y0326612D03*
X0247128Y0326612D03*
X0253821Y0326612D03*
X0296616Y0309643D03*
X0303309Y0309643D03*
X0301144Y0347439D03*
X0294451Y0347439D03*
X0134805Y0338265D03*
X0128112Y0338265D03*
D33*
X0127281Y0293346D03*
X0152881Y0293346D03*
X0152881Y0275546D03*
X0127281Y0275546D03*
D34*
X0137246Y0323580D03*
X0144726Y0323580D03*
X0140986Y0332242D03*
X0150199Y0164722D03*
X0157679Y0164722D03*
X0153939Y0156061D03*
X0198427Y0164289D03*
X0205907Y0164289D03*
X0202167Y0155628D03*
D35*
X0436344Y0193935D03*
X0436344Y0197084D03*
X0436344Y0200234D03*
X0436344Y0203383D03*
X0436344Y0206533D03*
X0436344Y0209683D03*
X0436344Y0212832D03*
X0436344Y0215982D03*
X0436344Y0219131D03*
X0436344Y0222281D03*
X0436344Y0225431D03*
X0480588Y0225431D03*
X0480588Y0222281D03*
X0480588Y0219131D03*
X0480588Y0215982D03*
X0480588Y0212832D03*
X0480588Y0209683D03*
X0480588Y0206533D03*
X0480588Y0203383D03*
X0480588Y0200234D03*
X0480588Y0197084D03*
X0480588Y0193935D03*
D36*
X0474214Y0187561D03*
X0471065Y0187561D03*
X0467915Y0187561D03*
X0464766Y0187561D03*
X0461616Y0187561D03*
X0458466Y0187561D03*
X0455317Y0187561D03*
X0452167Y0187561D03*
X0449018Y0187561D03*
X0445868Y0187561D03*
X0442718Y0187561D03*
X0442718Y0231805D03*
X0445868Y0231805D03*
X0449018Y0231805D03*
X0452167Y0231805D03*
X0455317Y0231805D03*
X0458466Y0231805D03*
X0461616Y0231805D03*
X0464766Y0231805D03*
X0467915Y0231805D03*
X0471065Y0231805D03*
X0474214Y0231805D03*
D37*
X0461444Y0327025D03*
X0461444Y0332025D03*
X0461444Y0337025D03*
X0461444Y0342025D03*
X0440844Y0342025D03*
X0440844Y0337025D03*
X0440844Y0332025D03*
X0440844Y0327025D03*
D38*
X0496577Y0286809D03*
X0500514Y0286809D03*
X0504451Y0286809D03*
X0508388Y0286809D03*
X0512325Y0286809D03*
X0516262Y0286809D03*
X0520199Y0286809D03*
X0524136Y0286809D03*
X0528427Y0286809D03*
X0532364Y0286809D03*
X0536301Y0286809D03*
X0540238Y0286809D03*
X0544175Y0286809D03*
X0548112Y0286809D03*
X0552049Y0286809D03*
X0555986Y0286809D03*
X0560277Y0286809D03*
X0564214Y0286809D03*
X0568151Y0286809D03*
X0572088Y0286809D03*
X0576025Y0286809D03*
X0579962Y0286809D03*
X0583899Y0286809D03*
X0587836Y0286809D03*
D39*
X0550474Y0274643D03*
X0544569Y0267557D03*
X0490238Y0267557D03*
X0476065Y0258108D03*
X0440632Y0241572D03*
X0433545Y0247478D03*
X0437088Y0236848D03*
X0434726Y0230943D03*
X0406380Y0241572D03*
X0405199Y0230943D03*
X0404018Y0208502D03*
X0420553Y0189998D03*
X0428821Y0184880D03*
X0437088Y0180155D03*
X0414648Y0182517D03*
X0471340Y0195509D03*
X0470159Y0206139D03*
X0465435Y0216769D03*
X0490238Y0232124D03*
X0497325Y0232124D03*
X0544569Y0203777D03*
X0550474Y0197872D03*
X0548112Y0184880D03*
X0505592Y0193147D03*
X0505592Y0165982D03*
X0497325Y0165982D03*
X0490238Y0165982D03*
X0548112Y0155352D03*
X0329608Y0247990D03*
X0352049Y0258108D03*
X0357974Y0267557D03*
X0340238Y0275824D03*
X0321340Y0262832D03*
X0289451Y0289998D03*
X0321340Y0299446D03*
X0329608Y0309643D03*
X0255199Y0317163D03*
X0226852Y0324250D03*
X0204411Y0324250D03*
X0152443Y0307714D03*
X0194962Y0272281D03*
X0255199Y0245116D03*
X0128821Y0182517D03*
X0184333Y0158895D03*
X0531577Y0297084D03*
X0542207Y0297084D03*
X0536301Y0305352D03*
X0624884Y0300628D03*
X0624884Y0274643D03*
D40*
X0759529Y0280549D03*
X0806773Y0280549D03*
M02*
